<?xml version="1.0" encoding="UTF-8" standalone="no"?>
<!DOCTYPE svg PUBLIC "-//W3C//DTD SVG 1.1//EN"
 "http://www.w3.org/Graphics/SVG/1.1/DTD/svg11.dtd">
<!-- Generated by graphviz version 2.26.3 (20100126.1600)
 -->
<!-- Title: G Pages: 1 -->
<svg width="942pt" height="752pt"
 viewBox="0.00 0.00 942.00 752.00" xmlns="http://www.w3.org/2000/svg" xmlns:xlink="http://www.w3.org/1999/xlink">
<g id="graph1" class="graph" transform="scale(1 1) rotate(0) translate(4 748)">
<title>G</title>
<polygon fill="white" stroke="white" points="-4,5 -4,-748 939,-748 939,5 -4,5"/>
<!-- dbus_daemon -->
<g id="node2" class="node"><title>dbus_daemon</title>
<polygon fill="none" stroke="black" points="214,-598 122,-598 122,-562 214,-562 214,-598"/>
<text text-anchor="middle" x="168" y="-576.9" font-family="Times Roman,serif" font-size="14.00">dbus_daemon</text>
</g>
<!-- QtDBus -->
<g id="node23" class="node"><title>QtDBus</title>
<ellipse fill="none" stroke="black" cx="867" cy="-609" rx="43.1335" ry="19.0919"/>
<text text-anchor="middle" x="867" y="-605.9" font-family="Times Roman,serif" font-size="14.00">QtDBus</text>
</g>
<!-- dbus_daemon&#45;&gt;QtDBus -->
<g id="edge97" class="edge"><title>dbus_daemon&#45;&gt;QtDBus</title>
<path fill="none" stroke="black" stroke-dasharray="5,2" d="M214.159,-582.509C261.346,-584.855 336.759,-588 402,-588 402,-588 402,-588 533,-588 632.822,-588 749.095,-597.459 814.777,-603.68"/>
<polygon fill="black" stroke="black" points="814.585,-607.178 824.873,-604.649 815.253,-600.21 814.585,-607.178"/>
</g>
<!-- dbus_launch -->
<g id="node3" class="node"><title>dbus_launch</title>
<polygon fill="none" stroke="black" points="85,-552 1,-552 1,-516 85,-516 85,-552"/>
<text text-anchor="middle" x="43" y="-530.9" font-family="Times Roman,serif" font-size="14.00">dbus_launch</text>
</g>
<!-- dbus_launch&#45;&gt;QtDBus -->
<g id="edge99" class="edge"><title>dbus_launch&#45;&gt;QtDBus</title>
<path fill="none" stroke="black" stroke-dasharray="5,2" d="M85.9297,-534C134.844,-534 217.18,-534 288,-534 288,-534 288,-534 533,-534 640.183,-534 762.116,-571.224 824.819,-593.223"/>
<polygon fill="black" stroke="black" points="823.768,-596.564 834.363,-596.615 826.112,-589.968 823.768,-596.564"/>
</g>
<!-- dbus_monitor -->
<g id="node4" class="node"><title>dbus_monitor</title>
<polygon fill="none" stroke="black" points="214,-652 122,-652 122,-616 214,-616 214,-652"/>
<text text-anchor="middle" x="168" y="-630.9" font-family="Times Roman,serif" font-size="14.00">dbus_monitor</text>
</g>
<!-- dbus_monitor&#45;&gt;QtDBus -->
<g id="edge101" class="edge"><title>dbus_monitor&#45;&gt;QtDBus</title>
<path fill="none" stroke="black" stroke-dasharray="5,2" d="M214.171,-632.745C261.367,-631.572 336.787,-630 402,-630 402,-630 402,-630 533,-630 632.822,-630 749.095,-620.541 814.777,-614.32"/>
<polygon fill="black" stroke="black" points="815.253,-617.79 824.873,-613.351 814.585,-610.822 815.253,-617.79"/>
</g>
<!-- dbus_send -->
<g id="node5" class="node"><title>dbus_send</title>
<polygon fill="none" stroke="black" points="205,-744 131,-744 131,-708 205,-708 205,-744"/>
<text text-anchor="middle" x="168" y="-722.9" font-family="Times Roman,serif" font-size="14.00">dbus_send</text>
</g>
<!-- dbus_send&#45;&gt;QtDBus -->
<g id="edge103" class="edge"><title>dbus_send&#45;&gt;QtDBus</title>
<path fill="none" stroke="black" stroke-dasharray="5,2" d="M205.282,-724.97C251.455,-723.785 332.521,-722 402,-722 402,-722 402,-722 533,-722 636.418,-722 668.96,-734.776 764,-694 795.6,-680.442 825.157,-654.064 844.431,-634.271"/>
<polygon fill="black" stroke="black" points="847.195,-636.444 851.544,-626.783 842.119,-631.623 847.195,-636.444"/>
</g>
<!-- libdbus -->
<g id="node6" class="node"><title>libdbus</title>
<polygon fill="none" stroke="black" points="71,-698 15,-698 15,-662 71,-662 71,-698"/>
<text text-anchor="middle" x="43" y="-676.9" font-family="Times Roman,serif" font-size="14.00">libdbus</text>
</g>
<!-- libdbus&#45;&gt;dbus_monitor -->
<g id="edge8" class="edge"><title>libdbus&#45;&gt;dbus_monitor</title>
<path fill="none" stroke="black" d="M71.0524,-669.677C83.2172,-665.2 97.9139,-659.792 112.146,-654.554"/>
<polygon fill="black" stroke="black" points="113.711,-657.708 121.887,-650.969 111.294,-651.138 113.711,-657.708"/>
</g>
<!-- libdbus&#45;&gt;dbus_send -->
<g id="edge10" class="edge"><title>libdbus&#45;&gt;dbus_send</title>
<path fill="none" stroke="black" d="M71.0524,-690.323C85.7343,-695.726 104.104,-702.486 120.894,-708.665"/>
<polygon fill="black" stroke="black" points="119.963,-712.052 130.557,-712.221 122.381,-705.483 119.963,-712.052"/>
</g>
<!-- libdbus&#45;&gt;QtDBus -->
<g id="edge12" class="edge"><title>libdbus&#45;&gt;QtDBus</title>
<path fill="none" stroke="black" d="M71.2942,-680C116.907,-680 209.523,-680 288,-680 288,-680 288,-680 533,-680 639.353,-680 760.673,-645.131 823.753,-624.265"/>
<polygon fill="black" stroke="black" points="824.995,-627.54 833.365,-621.044 822.771,-620.903 824.995,-627.54"/>
</g>
<!-- libexpat -->
<g id="node7" class="node"><title>libexpat</title>
<polygon fill="none" stroke="black" points="73,-606 13,-606 13,-570 73,-570 73,-606"/>
<text text-anchor="middle" x="43" y="-584.9" font-family="Times Roman,serif" font-size="14.00">libexpat</text>
</g>
<!-- libexpat&#45;&gt;dbus_daemon -->
<g id="edge14" class="edge"><title>libexpat&#45;&gt;dbus_daemon</title>
<path fill="none" stroke="black" d="M73.259,-586.063C84.8897,-585.319 98.5716,-584.443 111.865,-583.593"/>
<polygon fill="black" stroke="black" points="112.159,-587.081 121.915,-582.949 111.712,-580.095 112.159,-587.081"/>
</g>
<!-- libgcc -->
<g id="node8" class="node"><title>libgcc</title>
<polygon fill="none" stroke="black" points="70,-270 16,-270 16,-234 70,-234 70,-270"/>
<text text-anchor="middle" x="43" y="-248.9" font-family="Times Roman,serif" font-size="14.00">libgcc</text>
</g>
<!-- libstdc -->
<g id="node14" class="node"><title>libstdc</title>
<polygon fill="none" stroke="black" points="195,-270 141,-270 141,-234 195,-234 195,-270"/>
<text text-anchor="middle" x="168" y="-248.9" font-family="Times Roman,serif" font-size="14.00">libstdc</text>
</g>
<!-- libgcc&#45;&gt;libstdc -->
<g id="edge16" class="edge"><title>libgcc&#45;&gt;libstdc</title>
<path fill="none" stroke="black" d="M70.1231,-252C87.8957,-252 111.359,-252 130.857,-252"/>
<polygon fill="black" stroke="black" points="130.93,-255.5 140.93,-252 130.93,-248.5 130.93,-255.5"/>
</g>
<!-- libgomp -->
<g id="node9" class="node"><title>libgomp</title>
<polygon fill="none" stroke="black" points="199,-404 137,-404 137,-368 199,-368 199,-404"/>
<text text-anchor="middle" x="168" y="-382.9" font-family="Times Roman,serif" font-size="14.00">libgomp</text>
</g>
<!-- QtCore -->
<g id="node22" class="node"><title>QtCore</title>
<ellipse fill="none" stroke="black" cx="402" cy="-329" rx="39.0967" ry="19.0919"/>
<text text-anchor="middle" x="402" y="-325.9" font-family="Times Roman,serif" font-size="14.00">QtCore</text>
</g>
<!-- libgomp&#45;&gt;QtCore -->
<g id="edge91" class="edge"><title>libgomp&#45;&gt;QtCore</title>
<path fill="none" stroke="black" stroke-dasharray="5,2" d="M199.278,-379.314C231.226,-372.381 282.214,-361.032 326,-350 336.462,-347.364 347.685,-344.361 358.209,-341.466"/>
<polygon fill="black" stroke="black" points="359.338,-344.786 368.038,-338.74 357.466,-338.04 359.338,-344.786"/>
</g>
<!-- libjpeg -->
<g id="node10" class="node"><title>libjpeg</title>
<polygon fill="none" stroke="black" points="70,-216 16,-216 16,-180 70,-180 70,-216"/>
<text text-anchor="middle" x="43" y="-194.9" font-family="Times Roman,serif" font-size="14.00">libjpeg</text>
</g>
<!-- libtiff -->
<g id="node15" class="node"><title>libtiff</title>
<polygon fill="none" stroke="black" points="195,-216 141,-216 141,-180 195,-180 195,-216"/>
<text text-anchor="middle" x="168" y="-194.9" font-family="Times Roman,serif" font-size="14.00">libtiff</text>
</g>
<!-- libjpeg&#45;&gt;libtiff -->
<g id="edge18" class="edge"><title>libjpeg&#45;&gt;libtiff</title>
<path fill="none" stroke="black" d="M70.1231,-198C87.8957,-198 111.359,-198 130.857,-198"/>
<polygon fill="black" stroke="black" points="130.93,-201.5 140.93,-198 130.93,-194.5 130.93,-201.5"/>
</g>
<!-- libpng -->
<g id="node11" class="node"><title>libpng</title>
<polygon fill="none" stroke="black" points="195,-124 141,-124 141,-88 195,-88 195,-124"/>
<text text-anchor="middle" x="168" y="-102.9" font-family="Times Roman,serif" font-size="14.00">libpng</text>
</g>
<!-- QtGui -->
<g id="node24" class="node"><title>QtGui</title>
<ellipse fill="none" stroke="black" cx="694" cy="-187" rx="34.8574" ry="19.0919"/>
<text text-anchor="middle" x="694" y="-183.9" font-family="Times Roman,serif" font-size="14.00">QtGui</text>
</g>
<!-- libpng&#45;&gt;QtGui -->
<g id="edge20" class="edge"><title>libpng&#45;&gt;QtGui</title>
<path fill="none" stroke="black" d="M195.172,-110.184C280.579,-123.336 544.176,-163.928 649.679,-180.175"/>
<polygon fill="black" stroke="black" points="649.264,-183.652 659.68,-181.715 650.329,-176.734 649.264,-183.652"/>
</g>
<!-- libsqlite -->
<g id="node12" class="node"><title>libsqlite</title>
<polygon fill="none" stroke="black" points="73,-37 13,-37 13,-1 73,-1 73,-37"/>
<text text-anchor="middle" x="43" y="-15.9" font-family="Times Roman,serif" font-size="14.00">libsqlite</text>
</g>
<!-- QtWebKit -->
<g id="node31" class="node"><title>QtWebKit</title>
<ellipse fill="none" stroke="black" cx="867" cy="-19" rx="51.8276" ry="19.0919"/>
<text text-anchor="middle" x="867" y="-15.9" font-family="Times Roman,serif" font-size="14.00">QtWebKit</text>
</g>
<!-- libsqlite&#45;&gt;QtWebKit -->
<g id="edge22" class="edge"><title>libsqlite&#45;&gt;QtWebKit</title>
<path fill="none" stroke="black" d="M73.1741,-19C119.415,-19 210.587,-19 288,-19 288,-19 288,-19 533,-19 627.396,-19 736.799,-19 803.952,-19"/>
<polygon fill="black" stroke="black" points="804.358,-22.5001 814.358,-19 804.358,-15.5001 804.358,-22.5001"/>
</g>
<!-- libssp -->
<g id="node13" class="node"><title>libssp</title>
<polygon fill="none" stroke="black" points="70,-352 16,-352 16,-316 70,-316 70,-352"/>
<text text-anchor="middle" x="43" y="-330.9" font-family="Times Roman,serif" font-size="14.00">libssp</text>
</g>
<!-- libssp&#45;&gt;QtCore -->
<g id="edge89" class="edge"><title>libssp&#45;&gt;QtCore</title>
<path fill="none" stroke="black" stroke-dasharray="5,2" d="M70.278,-333.62C130.367,-332.783 274.909,-330.77 351.845,-329.699"/>
<polygon fill="black" stroke="black" points="352.287,-333.193 362.237,-329.554 352.189,-326.193 352.287,-333.193"/>
</g>
<!-- libtiffxx -->
<g id="node16" class="node"><title>libtiffxx</title>
<polygon fill="none" stroke="black" points="318,-216 258,-216 258,-180 318,-180 318,-216"/>
<text text-anchor="middle" x="288" y="-194.9" font-family="Times Roman,serif" font-size="14.00">libtiffxx</text>
</g>
<!-- libstdc&#45;&gt;libtiffxx -->
<g id="edge24" class="edge"><title>libstdc&#45;&gt;libtiffxx</title>
<path fill="none" stroke="black" d="M195.23,-239.747C210.75,-232.763 230.489,-223.88 247.767,-216.105"/>
<polygon fill="black" stroke="black" points="249.387,-219.214 257.07,-211.918 246.515,-212.83 249.387,-219.214"/>
</g>
<!-- pthreadgce -->
<g id="node19" class="node"><title>pthreadgce</title>
<polygon fill="none" stroke="black" points="326,-270 250,-270 250,-234 326,-234 326,-270"/>
<text text-anchor="middle" x="288" y="-248.9" font-family="Times Roman,serif" font-size="14.00">pthreadgce</text>
</g>
<!-- libstdc&#45;&gt;pthreadgce -->
<g id="edge26" class="edge"><title>libstdc&#45;&gt;pthreadgce</title>
<path fill="none" stroke="black" d="M195.23,-252C208.377,-252 224.552,-252 239.694,-252"/>
<polygon fill="black" stroke="black" points="239.962,-255.5 249.962,-252 239.962,-248.5 239.962,-255.5"/>
</g>
<!-- libstdc&#45;&gt;QtCore -->
<g id="edge28" class="edge"><title>libstdc&#45;&gt;QtCore</title>
<path fill="none" stroke="black" d="M195.333,-261.002C211.277,-266.253 231.777,-273.003 250,-279 286.984,-291.172 329.032,-305.003 359.514,-315.028"/>
<polygon fill="black" stroke="black" points="358.791,-318.474 369.383,-318.274 360.977,-311.825 358.791,-318.474"/>
</g>
<!-- libtiff&#45;&gt;libtiffxx -->
<g id="edge30" class="edge"><title>libtiff&#45;&gt;libtiffxx</title>
<path fill="none" stroke="black" d="M195.23,-198C210.462,-198 229.76,-198 246.805,-198"/>
<polygon fill="black" stroke="black" points="247.07,-201.5 257.07,-198 247.07,-194.5 247.07,-201.5"/>
</g>
<!-- libtiffxx&#45;&gt;QtGui -->
<g id="edge95" class="edge"><title>libtiffxx&#45;&gt;QtGui</title>
<path fill="none" stroke="black" stroke-dasharray="5,2" d="M318.516,-197.173C389.168,-195.259 564.323,-190.513 648.029,-188.246"/>
<polygon fill="black" stroke="black" points="648.351,-191.738 658.252,-187.969 648.161,-184.741 648.351,-191.738"/>
</g>
<!-- mingwm -->
<g id="node17" class="node"><title>mingwm</title>
<polygon fill="none" stroke="black" points="76,-460 10,-460 10,-424 76,-424 76,-460"/>
<text text-anchor="middle" x="43" y="-438.9" font-family="Times Roman,serif" font-size="14.00">mingwm</text>
</g>
<!-- mingwm&#45;&gt;QtCore -->
<g id="edge87" class="edge"><title>mingwm&#45;&gt;QtCore</title>
<path fill="none" stroke="black" stroke-dasharray="5,2" d="M76.1645,-438.203C110.899,-433.804 166.852,-425.515 214,-413 265.234,-399.4 277.882,-394.237 326,-372 340.424,-365.334 355.776,-356.919 368.879,-349.304"/>
<polygon fill="black" stroke="black" points="370.715,-352.284 377.552,-344.191 367.16,-346.254 370.715,-352.284"/>
</g>
<!-- pthreadgc -->
<g id="node18" class="node"><title>pthreadgc</title>
<polygon fill="none" stroke="black" points="78,-406 8,-406 8,-370 78,-370 78,-406"/>
<text text-anchor="middle" x="43" y="-384.9" font-family="Times Roman,serif" font-size="14.00">pthreadgc</text>
</g>
<!-- pthreadgc&#45;&gt;libgomp -->
<g id="edge32" class="edge"><title>pthreadgc&#45;&gt;libgomp</title>
<path fill="none" stroke="black" d="M78.1521,-387.438C93.3164,-387.195 111.156,-386.91 126.926,-386.657"/>
<polygon fill="black" stroke="black" points="126.998,-390.157 136.941,-386.497 126.886,-383.157 126.998,-390.157"/>
</g>
<!-- pthreadgce&#45;&gt;QtCore -->
<g id="edge93" class="edge"><title>pthreadgce&#45;&gt;QtCore</title>
<path fill="none" stroke="black" stroke-dasharray="5,2" d="M314.728,-270.053C331.316,-281.257 352.723,-295.717 370.184,-307.51"/>
<polygon fill="black" stroke="black" points="368.663,-310.707 378.909,-313.403 372.581,-304.906 368.663,-310.707"/>
</g>
<!-- zlib -->
<g id="node20" class="node"><title>zlib</title>
<polygon fill="none" stroke="black" points="70,-162 16,-162 16,-126 70,-126 70,-162"/>
<text text-anchor="middle" x="43" y="-140.9" font-family="Times Roman,serif" font-size="14.00">zlib</text>
</g>
<!-- zlib&#45;&gt;libpng -->
<g id="edge34" class="edge"><title>zlib&#45;&gt;libpng</title>
<path fill="none" stroke="black" d="M70.1231,-135.755C87.9776,-130.327 111.575,-123.153 131.126,-117.21"/>
<polygon fill="black" stroke="black" points="132.38,-120.487 140.93,-114.229 130.344,-113.789 132.38,-120.487"/>
</g>
<!-- zlib&#45;&gt;libtiff -->
<g id="edge36" class="edge"><title>zlib&#45;&gt;libtiff</title>
<path fill="none" stroke="black" d="M70.1231,-155.717C88.1414,-163.501 112.009,-173.812 131.664,-182.303"/>
<polygon fill="black" stroke="black" points="130.362,-185.553 140.93,-186.306 133.138,-179.127 130.362,-185.553"/>
</g>
<!-- zlib&#45;&gt;QtCore -->
<g id="edge38" class="edge"><title>zlib&#45;&gt;QtCore</title>
<path fill="none" stroke="black" d="M70.0051,-143.292C132.547,-142.163 285.107,-142.493 326,-171 369.408,-201.261 388.908,-263.281 396.954,-299.974"/>
<polygon fill="black" stroke="black" points="393.581,-300.949 399.013,-310.045 400.439,-299.546 393.581,-300.949"/>
</g>
<!-- QtCore&#45;&gt;QtGui -->
<g id="edge40" class="edge"><title>QtCore&#45;&gt;QtGui</title>
<path fill="none" stroke="black" d="M419.064,-311.535C433.643,-297.416 455.737,-277.842 478,-265 534.349,-232.495 606.612,-209.74 651.613,-197.51"/>
<polygon fill="black" stroke="black" points="652.577,-200.875 661.337,-194.916 650.773,-194.112 652.577,-200.875"/>
</g>
<!-- QtNetwork -->
<g id="node26" class="node"><title>QtNetwork</title>
<ellipse fill="none" stroke="black" cx="533" cy="-328" rx="53.9477" ry="19.0919"/>
<text text-anchor="middle" x="533" y="-324.9" font-family="Times Roman,serif" font-size="14.00">QtNetwork</text>
</g>
<!-- QtCore&#45;&gt;QtNetwork -->
<g id="edge42" class="edge"><title>QtCore&#45;&gt;QtNetwork</title>
<path fill="none" stroke="black" d="M441.66,-328.697C450.086,-328.633 459.191,-328.563 468.277,-328.494"/>
<polygon fill="black" stroke="black" points="468.516,-331.992 478.489,-328.416 468.463,-324.993 468.516,-331.992"/>
</g>
<!-- QtScript -->
<g id="node28" class="node"><title>QtScript</title>
<ellipse fill="none" stroke="black" cx="694" cy="-243" rx="43.8406" ry="19.0919"/>
<text text-anchor="middle" x="694" y="-239.9" font-family="Times Roman,serif" font-size="14.00">QtScript</text>
</g>
<!-- QtCore&#45;&gt;QtScript -->
<g id="edge44" class="edge"><title>QtCore&#45;&gt;QtScript</title>
<path fill="none" stroke="black" d="M432.429,-316.538C446.221,-311.111 462.809,-304.887 478,-300 534.687,-281.762 601.075,-264.897 645.137,-254.319"/>
<polygon fill="black" stroke="black" points="646.097,-257.688 655.012,-251.964 644.472,-250.879 646.097,-257.688"/>
</g>
<!-- QtSql -->
<g id="node29" class="node"><title>QtSql</title>
<ellipse fill="none" stroke="black" cx="694" cy="-393" rx="33.9411" ry="19.0919"/>
<text text-anchor="middle" x="694" y="-389.9" font-family="Times Roman,serif" font-size="14.00">QtSql</text>
</g>
<!-- QtCore&#45;&gt;QtSql -->
<g id="edge46" class="edge"><title>QtCore&#45;&gt;QtSql</title>
<path fill="none" stroke="black" d="M432.685,-341.256C446.383,-346.373 462.826,-352.036 478,-356 536.957,-371.4 606.688,-382.013 650.636,-387.801"/>
<polygon fill="black" stroke="black" points="650.323,-391.289 660.689,-389.1 651.22,-384.347 650.323,-391.289"/>
</g>
<!-- QtXml -->
<g id="node32" class="node"><title>QtXml</title>
<ellipse fill="none" stroke="black" cx="694" cy="-449" rx="38.8909" ry="19.0919"/>
<text text-anchor="middle" x="694" y="-445.9" font-family="Times Roman,serif" font-size="14.00">QtXml</text>
</g>
<!-- QtCore&#45;&gt;QtXml -->
<g id="edge48" class="edge"><title>QtCore&#45;&gt;QtXml</title>
<path fill="none" stroke="black" d="M422.652,-345.199C437.416,-356.181 458.113,-370.391 478,-380 534.232,-407.171 603.72,-427.164 648.44,-438.441"/>
<polygon fill="black" stroke="black" points="647.873,-441.907 658.421,-440.917 649.558,-435.113 647.873,-441.907"/>
</g>
<!-- QtTest -->
<g id="node36" class="node"><title>QtTest</title>
<ellipse fill="none" stroke="black" cx="867" cy="-496" rx="36.977" ry="19.0919"/>
<text text-anchor="middle" x="867" y="-492.9" font-family="Times Roman,serif" font-size="14.00">QtTest</text>
</g>
<!-- QtCore&#45;&gt;QtTest -->
<g id="edge62" class="edge"><title>QtCore&#45;&gt;QtTest</title>
<path fill="none" stroke="black" d="M414.437,-347.035C428.167,-365.836 451.82,-395.139 478,-414 535.341,-455.31 555.399,-460.016 624,-477 690.343,-493.425 769.698,-496.688 819.239,-496.858"/>
<polygon fill="black" stroke="black" points="819.345,-500.358 829.342,-496.852 819.34,-493.358 819.345,-500.358"/>
</g>
<!-- QtMultimedia -->
<g id="node25" class="node"><title>QtMultimedia</title>
<ellipse fill="none" stroke="black" cx="867" cy="-131" rx="67.1751" ry="19.0919"/>
<text text-anchor="middle" x="867" y="-127.9" font-family="Times Roman,serif" font-size="14.00">QtMultimedia</text>
</g>
<!-- QtGui&#45;&gt;QtMultimedia -->
<g id="edge50" class="edge"><title>QtGui&#45;&gt;QtMultimedia</title>
<path fill="none" stroke="black" d="M724.531,-177.117C749.02,-169.19 783.998,-157.868 813.166,-148.426"/>
<polygon fill="black" stroke="black" points="814.376,-151.713 822.812,-145.304 812.22,-145.053 814.376,-151.713"/>
</g>
<!-- QtOpenGL -->
<g id="node27" class="node"><title>QtOpenGL</title>
<ellipse fill="none" stroke="black" cx="867" cy="-75" rx="53.9477" ry="19.0919"/>
<text text-anchor="middle" x="867" y="-71.9" font-family="Times Roman,serif" font-size="14.00">QtOpenGL</text>
</g>
<!-- QtGui&#45;&gt;QtOpenGL -->
<g id="edge52" class="edge"><title>QtGui&#45;&gt;QtOpenGL</title>
<path fill="none" stroke="black" d="M711.644,-170.497C731.825,-152.245 766.429,-122.805 800,-103 806.196,-99.3448 812.959,-95.9279 819.728,-92.8247"/>
<polygon fill="black" stroke="black" points="821.159,-96.0187 828.909,-88.7946 818.346,-89.609 821.159,-96.0187"/>
</g>
<!-- QtSvg -->
<g id="node30" class="node"><title>QtSvg</title>
<ellipse fill="none" stroke="black" cx="867" cy="-187" rx="36.0624" ry="19.0919"/>
<text text-anchor="middle" x="867" y="-183.9" font-family="Times Roman,serif" font-size="14.00">QtSvg</text>
</g>
<!-- QtGui&#45;&gt;QtSvg -->
<g id="edge54" class="edge"><title>QtGui&#45;&gt;QtSvg</title>
<path fill="none" stroke="black" d="M729.846,-187C756.201,-187 792.243,-187 820.767,-187"/>
<polygon fill="black" stroke="black" points="820.903,-190.5 830.903,-187 820.903,-183.5 820.903,-190.5"/>
</g>
<!-- QtGui&#45;&gt;QtWebKit -->
<g id="edge56" class="edge"><title>QtGui&#45;&gt;QtWebKit</title>
<path fill="none" stroke="black" d="M711.689,-170.479C726.677,-155.942 748.191,-133.758 764,-112 783.412,-85.284 775.401,-69.0331 800,-47 805.048,-42.479 810.929,-38.6221 817.072,-35.3498"/>
<polygon fill="black" stroke="black" points="818.697,-38.4523 826.192,-30.9645 815.663,-32.1437 818.697,-38.4523"/>
</g>
<!-- Qt3Support -->
<g id="node33" class="node"><title>Qt3Support</title>
<ellipse fill="none" stroke="black" cx="867" cy="-374" rx="56.0679" ry="19.0919"/>
<text text-anchor="middle" x="867" y="-370.9" font-family="Times Roman,serif" font-size="14.00">Qt3Support</text>
</g>
<!-- QtGui&#45;&gt;Qt3Support -->
<g id="edge64" class="edge"><title>QtGui&#45;&gt;Qt3Support</title>
<path fill="none" stroke="black" d="M727.468,-193.89C740.393,-198.064 754.358,-204.663 764,-215 799.665,-253.234 768.984,-284.907 800,-327 807.309,-336.919 817.355,-345.512 827.444,-352.538"/>
<polygon fill="black" stroke="black" points="825.589,-355.507 835.87,-358.066 829.429,-349.654 825.589,-355.507"/>
</g>
<!-- QtDeclarative -->
<g id="node34" class="node"><title>QtDeclarative</title>
<ellipse fill="none" stroke="black" cx="867" cy="-299" rx="65.0538" ry="19.0919"/>
<text text-anchor="middle" x="867" y="-295.9" font-family="Times Roman,serif" font-size="14.00">QtDeclarative</text>
</g>
<!-- QtGui&#45;&gt;QtDeclarative -->
<g id="edge66" class="edge"><title>QtGui&#45;&gt;QtDeclarative</title>
<path fill="none" stroke="black" d="M726.205,-195.232C738.935,-199.613 753.097,-206.002 764,-215 786.82,-233.834 777.325,-251.992 800,-271 804.166,-274.493 808.83,-277.603 813.706,-280.361"/>
<polygon fill="black" stroke="black" points="812.155,-283.499 822.649,-284.951 815.351,-277.271 812.155,-283.499"/>
</g>
<!-- QtScriptTools -->
<g id="node35" class="node"><title>QtScriptTools</title>
<ellipse fill="none" stroke="black" cx="867" cy="-243" rx="65.7609" ry="19.0919"/>
<text text-anchor="middle" x="867" y="-239.9" font-family="Times Roman,serif" font-size="14.00">QtScriptTools</text>
</g>
<!-- QtGui&#45;&gt;QtScriptTools -->
<g id="edge68" class="edge"><title>QtGui&#45;&gt;QtScriptTools</title>
<path fill="none" stroke="black" d="M724.531,-196.883C749.02,-204.81 783.998,-216.132 813.166,-225.574"/>
<polygon fill="black" stroke="black" points="812.22,-228.947 822.812,-228.696 814.376,-222.287 812.22,-228.947"/>
</g>
<!-- QtNetwork&#45;&gt;QtWebKit -->
<g id="edge58" class="edge"><title>QtNetwork&#45;&gt;QtWebKit</title>
<path fill="none" stroke="black" d="M539.527,-309.075C551.798,-275.63 581.002,-205.247 624,-159 679.553,-99.2483 766.496,-57.7352 819.933,-36.1852"/>
<polygon fill="black" stroke="black" points="821.497,-39.3302 829.505,-32.3937 818.919,-32.8221 821.497,-39.3302"/>
</g>
<!-- QtNetwork&#45;&gt;Qt3Support -->
<g id="edge70" class="edge"><title>QtNetwork&#45;&gt;Qt3Support</title>
<path fill="none" stroke="black" d="M583.727,-334.986C642.97,-343.146 740.968,-356.642 804.759,-365.428"/>
<polygon fill="black" stroke="black" points="804.308,-368.899 814.692,-366.796 805.263,-361.964 804.308,-368.899"/>
</g>
<!-- QtXmlPatterns -->
<g id="node37" class="node"><title>QtXmlPatterns</title>
<ellipse fill="none" stroke="black" cx="694" cy="-299" rx="68.7979" ry="19.0919"/>
<text text-anchor="middle" x="694" y="-295.9" font-family="Times Roman,serif" font-size="14.00">QtXmlPatterns</text>
</g>
<!-- QtNetwork&#45;&gt;QtXmlPatterns -->
<g id="edge72" class="edge"><title>QtNetwork&#45;&gt;QtXmlPatterns</title>
<path fill="none" stroke="black" d="M581.742,-319.22C595.579,-316.728 610.906,-313.967 625.674,-311.307"/>
<polygon fill="black" stroke="black" points="626.562,-314.704 635.783,-309.486 625.321,-307.815 626.562,-314.704"/>
</g>
<!-- QtScript&#45;&gt;QtDeclarative -->
<g id="edge74" class="edge"><title>QtScript&#45;&gt;QtDeclarative</title>
<path fill="none" stroke="black" d="M729.427,-254.468C753.638,-262.305 786.167,-272.834 813.515,-281.687"/>
<polygon fill="black" stroke="black" points="812.74,-285.115 823.332,-284.865 814.896,-278.455 812.74,-285.115"/>
</g>
<!-- QtScript&#45;&gt;QtScriptTools -->
<g id="edge76" class="edge"><title>QtScript&#45;&gt;QtScriptTools</title>
<path fill="none" stroke="black" d="M738.103,-243C754.077,-243 772.614,-243 790.566,-243"/>
<polygon fill="black" stroke="black" points="790.749,-246.5 800.749,-243 790.749,-239.5 790.749,-246.5"/>
</g>
<!-- QtSql&#45;&gt;Qt3Support -->
<g id="edge78" class="edge"><title>QtSql&#45;&gt;Qt3Support</title>
<path fill="none" stroke="black" d="M727.767,-389.292C749.209,-386.937 777.641,-383.814 803.22,-381.005"/>
<polygon fill="black" stroke="black" points="803.675,-384.476 813.233,-379.905 802.911,-377.518 803.675,-384.476"/>
</g>
<!-- QtSql&#45;&gt;QtDeclarative -->
<g id="edge80" class="edge"><title>QtSql&#45;&gt;QtDeclarative</title>
<path fill="none" stroke="black" d="M718.42,-379.731C746.6,-364.42 793.358,-339.013 826.898,-320.789"/>
<polygon fill="black" stroke="black" points="828.866,-323.704 835.981,-315.854 825.524,-317.553 828.866,-323.704"/>
</g>
<!-- QtXml&#45;&gt;QtDBus -->
<g id="edge60" class="edge"><title>QtXml&#45;&gt;QtDBus</title>
<path fill="none" stroke="black" d="M712.187,-465.82C742.916,-494.24 805.222,-551.865 840.708,-584.683"/>
<polygon fill="black" stroke="black" points="838.555,-587.46 848.273,-591.681 843.308,-582.321 838.555,-587.46"/>
</g>
<!-- QtXml&#45;&gt;Qt3Support -->
<g id="edge82" class="edge"><title>QtXml&#45;&gt;Qt3Support</title>
<path fill="none" stroke="black" d="M724.797,-437.047C737.051,-432.196 751.244,-426.458 764,-421 784.005,-412.44 805.969,-402.495 824.457,-393.962"/>
<polygon fill="black" stroke="black" points="826.177,-397.023 833.78,-389.644 823.235,-390.672 826.177,-397.023"/>
</g>
<!-- QtXmlPatterns&#45;&gt;QtDeclarative -->
<g id="edge84" class="edge"><title>QtXmlPatterns&#45;&gt;QtDeclarative</title>
<path fill="none" stroke="black" d="M763.867,-299C773.095,-299 782.586,-299 791.897,-299"/>
<polygon fill="black" stroke="black" points="791.91,-302.5 801.91,-299 791.91,-295.5 791.91,-302.5"/>
</g>
</g>
</svg>
